nColumns=19
nRows=139
DataType=double
version=3
OpenSimVersion=4.1
endheader
time	ground_force_1_vx	ground_force_1_vy	ground_force_1_vz	ground_force_1_px	ground_force_1_py	ground_force_1_pz	ground_force_1_mx	ground_force_1_my	ground_force_1_mz	ground_force_2_vx	ground_force_2_vy	ground_force_2_vz	ground_force_2_px	ground_force_2_py	ground_force_2_pz	ground_force_2_mx	ground_force_2_my	ground_force_2_mz
2.94	0	0	0	0.700014	0	-0.213619	0	0	0	267.146	2095.09	10.5403	0.718701	0	-0.330188	0	-0.247939	0
2.945	0	0	0	0.725194	0	-0.214029	0	0	0	305.88	1951.71	27.8707	0.699826	0	-0.328043	0	-19.6316	0
2.95	0	0	0	0.75003	0	-0.214277	0	0	0	338.422	1779.4	40.2867	0.676753	0	-0.326683	0	-33.0812	0
2.955	0	0	0	0.775708	0	-0.214476	0	0	0	364.338	1585.32	33.9027	0.648949	0	-0.326672	0	-31.8529	0
2.96	0	0	0	0.801719	0	-0.214306	0	0	0	384.495	1378.91	-0.420531	0.615549	0	-0.328427	0	-13.3664	0
2.965	0	0	0	0.828349	0	-0.213733	0	0	0	400.452	1171.91	-57.0111	0.576476	0	-0.332017	0	17.4534	0
2.97	0	0	0	0.854803	0	-0.213586	0	0	0	409.366	975.36	-113.868	0.534814	0	-0.336567	0	50.9732	0
2.975	0	0	0	0.881383	0	-0.213445	0	0	0	403.033	794.43	-143.634	0.496702	0	-0.340061	0	72.6725	0
2.98	0	0	0	0.907894	0	-0.213402	0	0	0	373.671	625.046	-131.923	0.463688	0	-0.341343	0	70.3274	0
2.985	0	0	0	0.934353	0	-0.213283	0	0	0	320.702	461.243	-83.722	0.430889	0	-0.339949	0	42.176	0
2.99	0	0	0	0.961485	0	-0.212707	0	0	0	251.912	304.585	-21.1516	0.392112	0	-0.336051	0	-0.683609	0
2.995	0	0	0	0.98793	0	-0.212704	0	0	0	177.994	168.263	27.4389	0.391547	-0	-0.332846	0	-39.3226	0
3	0	0	0	1.01437	0	-0.212992	0	0	0	109.6	69.6597	43.0504	0.431721	0	-0.332752	0	-53.817	0
3.005	0	0	0	1.04076	0	-0.213657	0	0	0	57.5343	11.4092	25.6089	0.414888	0	-0.333331	0	-37.6861	0
3.01	0	0	0	1.06688	0	-0.214126	0	0	0	0	0	0	0.398602	0	-0.335096	0	0	0
3.015	0	0	0	1.09291	0	-0.21491	0	0	0	0	0	0	0.382911	0	-0.336614	0	0	0
3.02	0	0	0	1.11869	0	-0.215529	0	0	0	0	0	0	0.366809	0	-0.338153	0	0	0
3.025	0	0	0	1.14311	0	-0.215833	0	0	0	0	0	0	0.350679	0	-0.339542	0	0	0
3.03	0	0	0	1.16694	0	-0.2164	0	0	0	0	0	0	0.335767	0	-0.340323	0	0	0
3.035	0	0	0	1.19115	0	-0.217798	0	0	0	0	0	0	0.321596	0	-0.338685	0	0	0
3.04	0	0	0	1.21317	0	-0.218215	0	0	0	0	0	0	0.3049	0	-0.337074	0	0	0
3.045	0	0	0	1.23409	0	-0.218594	0	0	0	0	0	0	0.288752	0	-0.334627	0	0	0
3.05	0	0	0	1.2539	0	-0.21932	0	0	0	0	0	0	0.275662	0	-0.332045	0	0	0
3.055	0	0	0	1.27194	0	-0.218999	0	0	0	0	0	0	0.26435	0	-0.329083	0	0	0
3.06	0	0	0	1.28862	0	-0.218832	0	0	0	0	0	0	0.253814	0	-0.325953	0	0	0
3.065	0	0	0	1.30334	0	-0.218697	0	0	0	0	0	0	0.24372	0	-0.322646	0	0	0
3.07	0	0	0	1.31599	0	-0.21829	0	0	0	0	0	0	0.233556	0	-0.319351	0	0	0
3.075	0	0	0	1.32636	0	-0.217898	0	0	0	0	0	0	0.225	0	-0.316218	0	0	0
3.08	0	0	0	1.33449	0	-0.217382	0	0	0	0	0	0	0.218129	0	-0.313407	0	0	0
3.085	0	0	0	1.34036	0	-0.216902	0	0	0	0	0	0	0.211166	0	-0.310804	0	0	0
3.09	0	0	0	1.34421	0	-0.216667	0	0	0	0	0	0	0.205223	0	-0.308585	0	0	0
3.095	0	0	0	1.3462	0	-0.216603	0	0	0	0	0	0	0.200735	0	-0.306837	0	0	0
3.1	0	0	0	1.34646	0	-0.216675	0	0	0	0	0	0	0.197667	0	-0.304456	0	0	0
3.105	0	0	0	1.345	0	-0.216777	0	0	0	0	0	0	0.196119	0	-0.304723	0	0	0
3.11	0	0	0	1.34169	0	-0.216881	0	0	0	0	0	0	0.194833	0	-0.30442	0	0	0
3.115	0	0	0	1.3366	0	-0.216811	0	0	0	0	0	0	0.195712	0	-0.304384	0	0	0
3.12	0	0	0	1.3298	0	-0.216637	0	0	0	0	0	0	0.197717	0	-0.30497	0	0	0
3.125	0	0	0	1.32133	0	-0.216816	0	0	0	0	0	0	0.201732	0	-0.305365	0	0	0
3.13	0	0	0	1.31126	0	-0.217648	0	0	0	0	0	0	0.206995	0	-0.306972	0	0	0
3.135	0	0	0	1.29984	0	-0.218883	0	0	0	0	0	0	0.213958	0	-0.308068	0	0	0
3.14	0	0	0	1.28725	0	-0.220551	0	0	0	0	0	0	0.221893	0	-0.310293	0	0	0
3.145	-32.8617	13.0242	-3.10309	1.27349	0	-0.223082	0	3.5756	0	0	0	0	0.23094	0	-0.312503	0	0	0
3.15	-59.72	106.715	-12.7096	1.24662	-0	-0.22251	0	6.98803	0	0	0	0	0.240826	0	-0.315294	0	0	0
3.155	-95.9885	268.712	-37.8022	1.13427	0	-0.205346	0	6.66866	0	0	0	0	0.251653	0	-0.31782	0	0	0
3.16	-128.328	498.356	-80.6866	1.10953	0	-0.220247	0	-0.026799	0	0	0	0	0.263015	0	-0.320803	0	0	0
3.165	-141.721	779.309	-132.627	1.0904	0	-0.232656	0	-9.06498	0	0	0	0	0.273796	0	-0.326169	0	0	0
3.17	-136.856	1096.64	-173.611	1.07579	0	-0.242717	0	-12.0752	0	0	0	0	0.286451	0	-0.329437	0	0	0
3.175	-136.577	1421.49	-184.507	1.06483	0	-0.249849	0	-3.91096	0	0	0	0	0.299808	0	-0.33258	0	0	0
3.18	-170.288	1707.68	-157.327	1.05812	0	-0.254004	0	10.0362	0	0	0	0	0.31352	0	-0.336038	0	0	0
3.185	-248.831	1918.68	-93.1788	1.05767	0	-0.255358	0	19.5318	0	0	0	0	0.327525	0	-0.339337	0	0	0
3.19	-354.808	2053.28	-2.68273	1.06221	0	-0.254378	0	22.1154	0	0	0	0	0.342096	0	-0.342556	0	0	0
3.195	-454.717	2135.89	89.6233	1.06565	0	-0.252169	0	21.0373	0	0	0	0	0.357139	0	-0.34549	0	0	0
3.2	-517.451	2191.69	153.279	1.06161	0	-0.249991	0	15.8588	0	0	0	0	0.372564	0	-0.348483	0	0	0
3.205	-526.466	2239.29	168.376	1.0475	0	-0.248719	0	6.83721	0	0	0	0	0.388175	0	-0.351075	0	0	0
3.21	-486.829	2288.99	135.222	1.02441	0	-0.248394	0	0.407638	0	0	0	0	0.404197	0	-0.353485	0	0	0
3.215	-420.583	2343.27	70.1279	0.997192	0	-0.248679	0	-0.576155	0	0	0	0	0.420599	0	-0.355572	0	0	0
3.22	-352.497	2396.93	-3.18969	0.971776	0	-0.248965	0	0.139701	0	0	0	0	0.43764	0	-0.357451	0	0	0
3.225	-297.5	2441.59	-68.2837	0.949914	0	-0.249078	0	0.362407	0	0	0	0	0.45529	0	-0.35924	0	0	0
3.23	-250.196	2471.41	-117.199	0.930035	0	-0.249273	0	0.698592	0	0	0	0	0.473639	0	-0.360925	0	0	0
3.235	-195.949	2484.4	-147.243	0.90977	0	-0.249877	0	3.99975	0	0	0	0	0.492478	0	-0.362494	0	0	0
3.24	-133.876	2479.82	-157.842	0.887321	0	-0.250737	0	11.9969	0	0	0	0	0.512108	0	-0.364109	0	0	0
3.245	-74.1352	2460.32	-149.59	0.864561	0	-0.251466	0	18.861	0	0	0	0	0.531859	0	-0.363898	0	0	0
3.25	-26.2176	2432.28	-123.317	0.845074	0	-0.251801	0	18.413	0	0	0	0	0.552542	0	-0.365719	0	0	0
3.255	10.2692	2396.63	-81.5855	0.82932	0	-0.251741	0	12.5498	0	0	0	0	0.574046	0	-0.366557	0	0	0
3.26	45.6734	2348.35	-30.6357	0.815143	0	-0.251476	0	4.50105	0	0	0	0	0.596122	0	-0.367156	0	0	0
3.265	89.7879	2283.83	18.3896	0.800002	0	-0.251247	0	-4.51583	0	0	0	0	0.619011	0	-0.367666	0	0	0
3.27	144.891	2198.71	54.2046	0.781209	0	-0.25123	0	-13.6297	0	0	0	0	0.64214	0	-0.366949	0	0	0
3.275	207.075	2090.91	70.6571	0.758769	0	-0.25137	0	-21.4758	0	0	0	0	0.66722	0	-0.367441	0	0	0
3.28	265.345	1962	63.3742	0.734678	0	-0.251745	0	-23.1879	0	0	0	0	0.692493	0	-0.367298	0	0	0
3.285	307.382	1814.09	28.9007	0.710391	0	-0.252515	0	-12.4641	0	0	0	0	0.718705	0	-0.367176	0	0	0
3.29	329.44	1651.35	-28.0136	0.686519	0	-0.253857	0	10.5692	0	0	0	0	0.745283	0	-0.366663	0	0	0
3.295	337.418	1483.03	-87.0511	0.66388	0	-0.255411	0	37.209	0	0	0	0	0.772519	0	-0.365994	0	0	0
3.3	338.509	1316.71	-120.601	0.642794	0	-0.256376	0	55.0607	0	0	0	0	0.800659	0	-0.365567	0	0	0
3.305	333.405	1150.69	-109.213	0.621442	0	-0.255631	0	53.2409	0	0	0	0	0.828581	0	-0.364351	0	0	0
3.31	319.331	976.903	-54.0459	0.595636	0	-0.252708	0	27.8415	0	0	0	0	0.856585	0	-0.362972	0	0	0
3.315	295.582	790.852	23.997	0.559466	0	-0.247436	0	-14.2234	0	0	0	0	0.884951	0	-0.361729	0	0	0
3.32	265.27	596.96	92.4647	0.508166	0	-0.240537	0	-57.7499	0	0	0	0	0.913524	0	-0.360107	0	0	0
3.325	230.939	408.747	122.935	0.443945	0	-0.233876	0	-84.7132	0	0	0	0	0.941935	0	-0.358464	0	0	0
3.33	191.509	246.907	105.056	0.384845	0	-0.231129	0	-78.0087	0	0	0	0	0.970398	0	-0.357561	0	0	0
3.335	148.204	130.065	52.6124	0.433453	0	-0.237007	0	-37.4127	0	0	0	0	0.999087	0	-0.357227	0	0	0
3.34	106.301	54.4771	-3.40702	0.442225	0	-0.23812	0	6.92969	0	0	0	0	1.02742	0	-0.356597	0	0	0
3.345	72.5209	9.71894	-35.8531	0.425118	0	-0.236646	0	27.3278	0	0	0	0	1.05587	0	-0.356611	0	0	0
3.35	0	0	0	0.408813	0	-0.235009	0	0	0	0	0	0	1.08409	0	-0.357008	0	0	0
3.355	0	0	0	0.393273	0	-0.232847	0	0	0	0	0	0	1.11214	0	-0.357637	0	0	0
3.36	0	0	0	0.378251	0	-0.230065	0	0	0	0	0	0	1.13968	0	-0.358483	0	0	0
3.365	0	0	0	0.363299	0	-0.226534	0	0	0	0	0	0	1.16674	0	-0.359754	0	0	0
3.37	0	0	0	0.348856	0	-0.222383	0	0	0	0	0	0	1.19295	0	-0.361456	0	0	0
3.375	0	0	0	0.336121	0	-0.21828	0	0	0	0	0	0	1.2184	0	-0.363707	0	0	0
3.38	0	0	0	0.323194	0	-0.214347	0	0	0	0	0	0	1.24261	0	-0.366378	0	0	0
3.385	0	0	0	0.307195	0	-0.212921	0	0	0	0	0	0	1.26525	0	-0.369896	0	0	0
3.39	0	0	0	0.293348	0	-0.211501	0	0	0	0	0	0	1.28602	0	-0.373584	0	0	0
3.395	0	0	0	0.281747	0	-0.210047	0	0	0	0	0	0	1.30436	0	-0.377523	0	0	0
3.4	0	0	0	0.272516	0	-0.208486	0	0	0	0	0	0	1.32026	0	-0.381376	0	0	0
3.405	0	0	0	0.263919	0	-0.207397	0	0	0	0	0	0	1.33356	0	-0.384863	0	0	0
3.41	0	0	0	0.25541	0	-0.206726	0	0	0	0	0	0	1.34451	0	-0.387885	0	0	0
3.415	0	0	0	0.247348	0	-0.20649	0	0	0	0	0	0	1.35314	0	-0.391167	0	0	0
3.42	0	0	0	0.239789	0	-0.206162	0	0	0	0	0	0	1.35944	0	-0.393084	0	0	0
3.425	0	0	0	0.233654	0	-0.205472	0	0	0	0	0	0	1.36367	0	-0.394112	0	0	0
3.43	0	0	0	0.228312	0	-0.204277	0	0	0	0	0	0	1.36562	0	-0.394077	0	0	0
3.435	0	0	0	0.222666	0	-0.207405	0	0	0	0	0	0	1.36561	0	-0.393574	0	0	0
3.44	0	0	0	0.219063	0	-0.207647	0	0	0	0	0	0	1.36377	0	-0.391864	0	0	0
3.445	0	0	0	0.21692	0	-0.208525	0	0	0	0	0	0	1.36049	0	-0.389489	0	0	0
3.45	0	0	0	0.216149	0	-0.208114	0	0	0	0	0	0	1.35549	0	-0.38707	0	0	0
3.455	0	0	0	0.216022	0	-0.208964	0	0	0	0	0	0	1.34912	0	-0.383132	0	0	0
3.46	0	0	0	0.216826	0	-0.210087	0	0	0	0	0	0	1.34112	0	-0.379375	0	0	0
3.465	0	0	0	0.218974	0	-0.211438	0	0	0	0	0	0	1.33148	0	-0.375329	0	0	0
3.47	0	0	0	0.223255	0	-0.212528	0	0	0	0	0	0	1.32036	0	-0.371028	0	0	0
3.475	0	0	0	0.229765	0	-0.213193	0	0	0	0	0	0	1.30793	0	-0.366504	0	0	0
3.48	0	0	0	0.237762	0	-0.214046	0	0	0	0	0	0	1.29429	0	-0.361834	0	0	0
3.485	0	0	0	0.247221	0	-0.214358	0	0	0	-35.1626	59.103	9.89211	1.27955	0	-0.356416	0	-2.59571	0
3.49	0	0	0	0.257893	0	-0.21398	0	0	0	-75.5115	193.231	38.8997	1.14432	0	-0.381047	0	-3.36569	0
3.495	0	0	0	0.269352	0	-0.215039	0	0	0	-125.249	400.305	80.4877	1.1045	0	-0.376352	0	-3.35829	0
3.5	0	0	0	0.281887	0	-0.214932	0	0	0	-166.995	660.484	131.154	1.10114	0	-0.364198	0	-0.507898	0
3.505	0	0	0	0.295209	0	-0.214695	0	0	0	-187.243	934.274	175.443	1.09588	0	-0.353687	0	3.31141	0
3.51	0	0	0	0.309187	0	-0.21451	0	0	0	-193.006	1192.25	185.066	1.0861	0	-0.345481	0	1.51918	0
3.515	0	0	0	0.323752	0	-0.214188	0	0	0	-209.425	1414.95	139.695	1.07047	0	-0.340157	0	-7.99458	0
3.52	0	0	0	0.338881	0	-0.213675	0	0	0	-244.5	1586.03	46.977	1.05505	0	-0.337704	0	-16.3451	0
3.525	0	0	0	0.354611	0	-0.21329	0	0	0	-289.732	1704.72	-58.45	1.04316	0	-0.337567	0	-14.1574	0
3.53	0	0	0	0.370809	0	-0.212989	0	0	0	-338.498	1792.74	-134.356	1.03115	0	-0.338863	0	-2.64463	0
3.535	0	0	0	0.387246	0	-0.212826	0	0	0	-379.616	1876.84	-151.931	1.01723	0	-0.339989	0	8.91509	0
3.54	0	0	0	0.404068	0	-0.21279	0	0	0	-400.094	1977.44	-110.818	1.00379	0	-0.339987	0	11.5308	0
3.545	0	0	0	0.421612	0	-0.213007	0	0	0	-402.58	2104.2	-32.7374	0.991367	0	-0.33874	0	4.45642	0
3.55	0	0	0	0.439683	0	-0.212109	0	0	0	-397.89	2246.01	48.8987	0.980143	0	-0.337279	0	-4.68565	0
3.555	0	0	0	0.458137	0	-0.213358	0	0	0	-389.371	2372.89	106.252	0.969944	0	-0.336725	0	-7.6266	0
3.56	0	0	0	0.476793	0	-0.214181	0	0	0	-375.328	2461.7	131.745	0.957512	0	-0.337605	0	-4.69409	0
3.565	0	0	0	0.496086	0	-0.214528	0	0	0	-346.863	2507.38	137.899	0.940071	0	-0.339231	0	-0.015735	0
3.57	0	0	0	0.515867	0	-0.214897	0	0	0	-295.817	2522	138.265	0.917817	0	-0.340757	0	3.07172	0
3.575	0	0	0	0.536247	0	-0.215204	0	0	0	-230.631	2524.78	138.14	0.893056	0	-0.341572	0	1.15664	0
3.58	0	0	0	0.557438	0	-0.21533	0	0	0	-166.5	2524.28	133.052	0.868991	0	-0.341804	0	-3.74146	0
3.585	0	0	0	0.578316	0	-0.215924	0	0	0	-111.087	2517.86	116.684	0.847509	0	-0.341873	0	-5.76631	0
3.59	0	0	0	0.599765	0	-0.216563	0	0	0	-60.7379	2501.49	87.8719	0.828328	0	-0.34209	0	-3.38108	0
3.595	0	0	0	0.621672	0	-0.216297	0	0	0	-6.05218	2472.54	51.8169	0.809541	0	-0.342424	0	2.66955	0
3.6	0	0	0	0.644054	0	-0.216503	0	0	0	58.2013	2431.56	16.8813	0.789874	0	-0.342527	0	11.947	0
3.605	0	0	0	0.666882	0	-0.216709	0	0	0	127.544	2379.69	-8.22169	0.769834	0	-0.342135	0	21.5151	0
3.61	0	0	0	0.690188	0	-0.216874	0	0	0	190.221	2314.47	-16.5449	0.750899	0	-0.34106	0	26.6992	0
3.615	0	0	0	0.713879	0	-0.217034	0	0	0	236.65	2228.84	-5.28072	0.733621	0	-0.339332	0	21.6954	0
3.62	0	0	0	0.737953	0	-0.217229	0	0	0	265.376	2118.61	22.6543	0.717502	0	-0.337078	0	2.75012	0
3.625	0	0	0	0.762593	0	-0.217714	0	0	0	283.24	1986.67	56.781	0.702024	0	-0.334541	0	-24.4274	0
3.63	0	0	0	0.787418	0	-0.217177	0	0	0	298.899	1839.62	80.501	0.687441	0	-0.332113	0	-45.1014	0
